<svg width="88" height="88" viewBox="0 0 88 88" fill="none" xmlns="http://www.w3.org/2000/svg">
<circle cx="44" cy="44" r="44" fill="#4281A4"/>
<path d="M44 51V44M44 44V37M44 44H37M44 44H51M44.0003 64.9999C40.185 64.9999 36.6074 63.9824 33.5239 62.2041C33.2193 62.0284 33.0668 61.9406 32.9235 61.901C32.7901 61.8642 32.6711 61.8517 32.533 61.8612C32.3859 61.8712 32.2337 61.922 31.9311 62.0228L26.5422 63.8191L26.5379 63.8211C25.4008 64.2001 24.8312 64.39 24.4526 64.255C24.1228 64.1374 23.8628 63.877 23.7452 63.5472C23.6103 63.1689 23.7996 62.6012 24.1781 61.4657L24.1803 61.4586L25.9743 56.0768L25.9785 56.0656C26.0785 55.7656 26.1291 55.6138 26.1391 55.4673C26.1486 55.3292 26.136 55.2094 26.0992 55.076C26.0601 54.9346 25.9738 54.785 25.8027 54.4883L25.7958 54.4764C24.0174 51.3929 23 47.8153 23 44C23 32.402 32.402 23 44 23C55.598 23 65 32.402 65 44C65 55.598 55.5983 64.9999 44.0003 64.9999Z" stroke="white" stroke-width="2" stroke-linecap="round" stroke-linejoin="round"/>
</svg>
