<svg xmlns="http://www.w3.org/2000/svg" xmlns:xlink="http://www.w3.org/1999/xlink" version="1.1" width="256" height="256" viewBox="0 0 256 256" xml:space="preserve">
<g style="stroke: none; stroke-width: 0; stroke-dasharray: none; stroke-linecap: butt; stroke-linejoin: miter; stroke-miterlimit: 10; fill: none; fill-rule: nonzero; opacity: 1;" transform="translate(1.4065934065933874 254.5934065934066) rotate(-90) scale(2.81 2.81)">
	<circle cx="45" cy="45" r="45" style="stroke: none; stroke-width: 1; stroke-dasharray: none; stroke-linecap: butt; stroke-linejoin: miter; stroke-miterlimit: 10; fill: rgb(66,129,164); fill-rule: nonzero; opacity: 1;" transform="  matrix(1 0 0 1 0 0) "/>
	<path d="M 46.112 21.338 c -0.027 -0.018 -0.057 -0.029 -0.084 -0.046 c -0.084 -0.051 -0.168 -0.1 -0.259 -0.138 c -0.038 -0.016 -0.079 -0.023 -0.118 -0.037 c -0.084 -0.029 -0.166 -0.06 -0.255 -0.077 C 45.266 21.014 45.134 21 45 21 s -0.266 0.014 -0.395 0.04 c -0.088 0.018 -0.171 0.049 -0.255 0.077 c -0.039 0.014 -0.08 0.021 -0.118 0.037 c -0.091 0.038 -0.176 0.088 -0.259 0.138 c -0.027 0.016 -0.058 0.028 -0.084 0.046 c -0.109 0.073 -0.211 0.156 -0.303 0.249 L 28.481 36.691 c -0.781 0.781 -0.781 2.047 0 2.828 c 0.781 0.781 2.047 0.781 2.828 0 L 43 27.828 L 43 67 c 0 1.104 0.896 2 2 2 s 2 -0.896 2 -2 l 0 -39.172 L 58.691 39.52 c 0.781 0.781 2.047 0.781 2.828 0 c 0.391 -0.391 0.586 -0.902 0.586 -1.414 s -0.195 -1.023 -0.586 -1.414 L 46.415 21.587 C 46.323 21.495 46.221 21.411 46.112 21.338 z" style="stroke: none; stroke-width: 1; stroke-dasharray: none; stroke-linecap: butt; stroke-linejoin: miter; stroke-miterlimit: 10; fill: rgb(255,255,255); fill-rule: nonzero; opacity: 1;" transform=" matrix(1 0 0 1 0 0) " stroke-linecap="round"/>
</g>
</svg>