<svg width="88" height="88" viewBox="0 0 88 88" fill="none" xmlns="http://www.w3.org/2000/svg">
<path d="M87.9344 43.4672C87.9344 67.4734 68.4734 86.9344 44.4672 86.9344C20.4609 86.9344 1 67.4734 1 43.4672C1 19.4609 20.4609 0 44.4672 0C68.4734 0 87.9344 19.4609 87.9344 43.4672Z" fill="#4281A4"/>
<path d="M23.3028 44.5076C23.2867 44.4831 23.2768 44.4559 23.2616 44.4314C23.2159 44.3553 23.172 44.2792 23.138 44.1967C23.1236 44.1623 23.1174 44.1251 23.1048 44.0898C23.0788 44.0137 23.0511 43.9394 23.0358 43.8587C23.0125 43.7409 23 43.6213 23 43.4999C23 43.3785 23.0125 43.2588 23.0358 43.1419C23.052 43.0622 23.0797 42.987 23.1048 42.9109C23.1174 42.8755 23.1236 42.8384 23.138 42.8039C23.172 42.7215 23.2168 42.6445 23.2616 42.5692C23.2759 42.5448 23.2867 42.5167 23.3028 42.4931C23.3682 42.3944 23.4425 42.3019 23.5259 42.2186L37.0565 28.5308C37.7562 27.8231 38.8903 27.8231 39.5899 28.5308C40.2896 29.2385 40.2896 30.3857 39.5899 31.0935L29.1167 41.6875H64.2083C65.1973 41.6875 66 42.4995 66 43.4999C66 44.5003 65.1973 45.3122 64.2083 45.3122H29.1167L39.5908 55.9063C40.2905 56.614 40.2905 57.7613 39.5908 58.469C39.2406 58.8233 38.7828 59 38.3241 59C37.8655 59 37.4077 58.8233 37.0574 58.469L23.5259 44.7821C23.4434 44.6988 23.3682 44.6063 23.3028 44.5076Z" fill="white" stroke="#4281A4" stroke-width="1.5"/>
</svg>
