<svg width="24" height="24" viewBox="0 0 24 24" fill="none" xmlns="http://www.w3.org/2000/svg">
<g clip-path="url(#clip0_414_205)">
<path d="M2.23929 23.8413C1.70003 23.8413 1.16051 23.6355 0.749023 23.224C-0.0742188 22.4008 -0.0742188 21.0667 0.749023 20.2435L20.2434 0.749131C21.0666 -0.0738477 22.4007 -0.0738477 23.2239 0.749131C24.0469 1.57211 24.0469 2.90642 23.2239 3.7294L3.72956 23.2238C3.31807 23.6355 2.77855 23.8413 2.23929 23.8413Z" fill="#C1666B"/>
<path d="M21.7337 23.8415C21.1941 23.8415 20.6549 23.6358 20.2434 23.2243L0.749023 3.72989C-0.0742188 2.90691 -0.0742188 1.5726 0.749023 0.749619C1.572 -0.0733595 2.90631 -0.0733595 3.72929 0.749619L23.2237 20.244C24.0466 21.0672 24.0466 22.4013 23.2237 23.2245C22.8124 23.6358 22.2732 23.8415 21.7337 23.8415Z" fill="#C1666B"/>
</g>
<defs>
<clipPath id="clip0_414_205">
<rect width="24" height="24" fill="white"/>
</clipPath>
</defs>
</svg>
