<svg width="86" height="86" viewBox="0 0 86 86" fill="none" xmlns="http://www.w3.org/2000/svg">
<g clip-path="url(#clip0_418_210)">
<path d="M42.9518 85.4311C66.4125 85.4311 85.4311 66.4125 85.4311 42.9518C85.4311 19.4912 66.4125 0.472534 42.9518 0.472534C19.4912 0.472534 0.472534 19.4912 0.472534 42.9518C0.472534 66.4125 19.4912 85.4311 42.9518 85.4311Z" fill="#5A716A"/>
<path d="M36.2486 59.0354C35.7492 59.0354 35.2697 58.8372 34.9157 58.4841L21.8056 45.4118C21.0674 44.6765 21.0655 43.4804 21.8018 42.7423C22.5372 42.0031 23.7332 42.0003 24.4714 42.7385L36.1995 54.4335L61.385 27.4676C62.0977 26.7058 63.2928 26.6653 64.0536 27.377C64.8164 28.0888 64.857 29.2839 64.1452 30.0457L37.6277 58.436C37.2785 58.8098 36.7933 59.026 36.2816 59.0354C36.2712 59.0354 36.2599 59.0354 36.2486 59.0354Z" fill="white" stroke="#5A716A" stroke-width="2"/>
</g>
<defs>
<clipPath id="clip0_418_210">
<rect width="86" height="86" fill="white"/>
</clipPath>
</defs>
</svg>
