<svg width="88" height="88" viewBox="0 0 88 88" fill="none" xmlns="http://www.w3.org/2000/svg">
<g clip-path="url(#clip0_404_177)">
<path d="M43.9502 1.88879C67.1804 1.88879 86.0125 20.7202 86.0127 43.9503C86.0127 67.1806 67.1805 86.0128 43.9502 86.0128C20.7201 86.0126 1.88867 67.1805 1.88867 43.9503C1.88888 20.7203 20.7202 1.889 43.9502 1.88879Z" fill="#5A716A" stroke="#5A716A" stroke-width="2.81"/>
<path d="M68.0149 65.6041L63.1282 49.5773C63.1214 49.5561 63.1079 49.5377 63.1012 49.5165C63.0674 49.4179 63.0239 49.3223 62.9737 49.2296C62.9543 49.1929 62.9379 49.1552 62.9157 49.1195C62.8394 48.9978 62.7525 48.8809 62.6462 48.7746L36.2684 22.3958C32.8161 18.9436 27.1982 18.9436 23.746 22.3958L22.3956 23.7462C18.9433 27.1985 18.9433 32.8164 22.3956 36.2686L48.7744 62.6474C48.8806 62.7537 48.9975 62.8406 49.1192 62.9169C49.155 62.9391 49.1926 62.9546 49.2293 62.9749C49.323 63.0251 49.4177 63.0686 49.5162 63.1024C49.5375 63.1101 49.5558 63.1227 49.5771 63.1294L65.6039 68.0161C65.7884 68.0721 65.9787 68.0992 66.167 68.0992C66.6713 68.0992 67.1649 67.9012 67.5329 67.5331C68.0381 67.0289 68.2235 66.2871 68.0149 65.6041ZM25.1273 26.4779L26.4776 25.1275C28.425 23.1811 31.5904 23.1821 33.5367 25.1275L58.5497 50.1405L50.1412 58.5489L25.1273 33.537C23.1819 31.5906 23.1819 28.4243 25.1273 26.4779ZM53.7818 60.3717L60.3714 53.782L63.2615 63.2617L53.7818 60.3717Z" fill="white" stroke="#5A716A" stroke-width="2"/>
</g>
<defs>
<clipPath id="clip0_404_177">
<rect width="88" height="88" fill="white"/>
</clipPath>
</defs>
</svg>
