<svg width="88" height="88" viewBox="0 0 88 88" fill="none" xmlns="http://www.w3.org/2000/svg">
<g clip-path="url(#clip0_317_77)">
<path d="M43.9507 87.4179C67.957 87.4179 87.4179 67.957 87.4179 43.9507C87.4179 19.9444 67.957 0.483521 43.9507 0.483521C19.9444 0.483521 0.483521 19.9444 0.483521 43.9507C0.483521 67.957 19.9444 87.4179 43.9507 87.4179Z" fill="#373F51"/>
<path d="M42.8992 20.1754C43.4756 19.7141 44.2796 19.6853 44.8826 20.0884L45.0007 20.1754L66.7341 37.5621C67.4598 38.1423 67.5776 39.1997 66.9978 39.9244C66.6657 40.3389 66.1767 40.5552 65.6833 40.5552C65.3147 40.5552 64.9438 40.435 64.6345 40.1871H64.6335L61.9226 38.0191L61.5164 37.6939V64.482C61.5162 65.4101 60.7629 66.1635 59.8347 66.1636H28.0662C27.1379 66.1636 26.3837 65.4102 26.3835 64.482V37.6949L25.9773 38.0201L23.2673 40.188C22.5419 40.7689 21.4836 40.6497 20.9031 39.9254H20.9021C20.3591 39.245 20.4292 38.273 21.0369 37.6763L21.1658 37.5621L42.8992 20.1754ZM58.1531 35.0025L58.0593 34.9283L44.1072 23.7662L43.9509 23.6412L43.7947 23.7662L29.8416 34.9283L29.7478 35.0035V62.7994H58.1531V35.0025Z" fill="white" stroke="#373F51" stroke-width="0.5"/>
</g>
<defs>
<clipPath id="clip0_317_77">
<rect width="88" height="88" fill="white"/>
</clipPath>
</defs>
</svg>
