<svg width="88" height="88" viewBox="0 0 88 88" fill="none" xmlns="http://www.w3.org/2000/svg">
<g clip-path="url(#clip0_317_77)">
<path d="M43.9507 87.4179C67.957 87.4179 87.4179 67.957 87.4179 43.9507C87.4179 19.9444 67.957 0.483521 43.9507 0.483521C19.9444 0.483521 0.483521 19.9444 0.483521 43.9507C0.483521 67.957 19.9444 87.4179 43.9507 87.4179Z" fill="#373F51"/>
<path d="M66.8907 37.3669L45.1571 19.98C44.453 19.4149 43.4493 19.4149 42.7432 19.98L21.0097 37.3669C20.177 38.0334 20.0418 39.2485 20.7083 40.0821C21.3748 40.9138 22.5899 41.051 23.4235 40.3835L26.134 38.215V64.4817C26.134 65.5481 26.9994 66.4136 28.0658 66.4136H59.8345C60.9009 66.4136 61.7664 65.5481 61.7664 64.4817V38.214L64.4778 40.3825C64.8333 40.6675 65.2602 40.8056 65.6833 40.8056C66.2493 40.8056 66.8115 40.5574 67.1931 40.0812C67.8596 39.2485 67.7243 38.0334 66.8907 37.3669ZM57.9027 62.5498H29.9977V35.124L43.9507 23.9616L57.9027 35.123V62.5498Z" fill="white" stroke="#373F51" stroke-width="2"/>
</g>
<defs>
<clipPath id="clip0_317_77">
<rect width="88" height="88" fill="white"/>
</clipPath>
</defs>
</svg>
