<svg width="94" height="94" viewBox="0 0 94 94" fill="none" xmlns="http://www.w3.org/2000/svg">
<path d="M47 94C72.9574 94 94 72.9574 94 47C94 21.0426 72.9574 0 47 0C21.0426 0 0 21.0426 0 47C0 72.9574 21.0426 94 47 94Z" fill="#D8D5DB"/>
<path d="M47 88C69.6437 88 88 69.6437 88 47C88 24.3563 69.6437 6 47 6C24.3563 6 6 24.3563 6 47C6 69.6437 24.3563 88 47 88Z" fill="#373F51"/>
<path d="M58.3571 27.7787C61.8295 27.7787 65.0925 29.1312 67.5485 31.5863C72.6165 36.6546 72.6165 44.9008 67.5485 49.9691L48.1119 69.4056C47.8044 69.7131 47.4024 69.8656 46.9996 69.8656C46.597 69.8655 46.1957 69.713 45.8883 69.4056L26.4518 49.9681C23.9997 47.5169 22.65 44.2539 22.65 40.7767C22.6501 37.4091 23.9167 34.2409 26.2252 31.8177L26.4518 31.5863C28.9068 29.1304 32.1698 27.7787 35.6432 27.7787C39.1155 27.7787 42.3787 29.1313 44.8346 31.5863L46.8229 33.5736L46.9996 33.7504L47.1764 33.5736L49.1656 31.5863C51.6207 29.1313 54.8846 27.7787 58.3571 27.7787ZM35.6442 30.9232C33.0121 30.9232 30.5363 31.949 28.6754 33.809C26.8173 35.6672 25.7947 38.1425 25.7946 40.7767C25.7946 43.4111 26.8171 45.8871 28.6754 47.7445L46.8229 65.8939L46.9996 66.0707L47.1764 65.8939L65.3248 47.7465C69.1662 43.9042 69.1662 37.6522 65.3248 33.8099C63.4639 31.9491 60.988 30.9242 58.3571 30.9242C55.726 30.9242 53.2501 31.9501 51.3893 33.8099L48.1119 37.0863C47.8171 37.3811 47.4161 37.5472 46.9996 37.5472C46.5825 37.5471 46.1832 37.3813 45.8873 37.0863L42.611 33.809C40.7502 31.9491 38.2752 30.9233 35.6442 30.9232Z" fill="white" stroke="#373F51" stroke-width="0.5"/>
</svg>
