<svg width="88" height="88" viewBox="0 0 88 88" fill="none" xmlns="http://www.w3.org/2000/svg">
<g clip-path="url(#clip0_403_156)">
<path d="M43.9506 87.4179C67.9568 87.4179 87.4178 67.957 87.4178 43.9507C87.4178 19.9444 67.9568 0.483521 43.9506 0.483521C19.9443 0.483521 0.483398 19.9444 0.483398 43.9507C0.483398 67.957 19.9443 87.4179 43.9506 87.4179Z" fill="#C1666B"/>
<path d="M69.0243 45.0248C69.0417 44.9987 69.0524 44.9697 69.0688 44.9437C69.118 44.8625 69.1654 44.7814 69.2021 44.6935C69.2175 44.6568 69.2243 44.6172 69.2378 44.5795C69.2658 44.4984 69.2958 44.4192 69.3122 44.3332C69.3373 44.2086 69.3508 44.0801 69.3508 43.9516C69.3508 43.8232 69.3373 43.6947 69.3122 43.5701C69.2948 43.4851 69.2649 43.4049 69.2378 43.3238C69.2243 43.2861 69.2175 43.2465 69.2021 43.2098C69.1654 43.1219 69.1171 43.0398 69.0688 42.9596C69.0533 42.9336 69.0417 42.9036 69.0243 42.8785C68.9538 42.7732 68.8737 42.6747 68.7838 42.5858L59.024 32.825C58.2696 32.0706 57.0467 32.0706 56.2923 32.825C55.5379 33.5794 55.5379 34.8023 56.2923 35.5567L62.7544 42.0188H38.9885C37.9221 42.0188 37.0566 42.8843 37.0566 43.9507C37.0566 45.0171 37.9221 45.8826 38.9885 45.8826H62.7544L56.2923 52.3447C55.5379 53.0991 55.5379 54.322 56.2923 55.0764C56.67 55.454 57.1636 55.6424 57.6582 55.6424C58.1527 55.6424 58.6463 55.454 59.024 55.0764L68.7829 45.3175C68.8727 45.2286 68.9529 45.1301 69.0243 45.0248Z" fill="white" stroke="#C1666B" stroke-width="2"/>
<path d="M48.6711 53.9346C47.6047 53.9346 46.7393 54.8001 46.7393 55.8665V62.2436H26.2778V25.6578H46.7393V32.0349C46.7393 33.1013 47.6047 33.9668 48.6711 33.9668C49.7375 33.9668 50.603 33.1013 50.603 32.0349V23.7259C50.603 22.6595 49.7375 21.794 48.6711 21.794H24.3459C23.2795 21.794 22.4141 22.6595 22.4141 23.7259V64.1745C22.4141 65.2409 23.2795 66.1064 24.3459 66.1064H48.6711C49.7375 66.1064 50.603 65.2409 50.603 64.1745V55.8655C50.603 54.7991 49.7375 53.9346 48.6711 53.9346Z" fill="white" stroke="#C1666B" stroke-width="2"/>
</g>
<defs>
<clipPath id="clip0_403_156">
<rect width="88" height="88" fill="white"/>
</clipPath>
</defs>
</svg>
