<svg xmlns="http://www.w3.org/2000/svg" xmlns:xlink="http://www.w3.org/1999/xlink" version="1.1" width="256" height="256" viewBox="0 0 256 256" xml:space="preserve">
<g style="stroke: none; stroke-width: 0; stroke-dasharray: none; stroke-linecap: butt; stroke-linejoin: miter; stroke-miterlimit: 10; fill: none; fill-rule: nonzero; opacity: 1;" transform="translate(1.4065934065934016 1.4065934065934016) scale(2.81 2.81)">
	<circle cx="45" cy="45" r="45" style="stroke: none; stroke-width: 1; stroke-dasharray: none; stroke-linecap: butt; stroke-linejoin: miter; stroke-miterlimit: 10; fill: rgb(66,129,164); fill-rule: nonzero; opacity: 1;" transform="  matrix(1 0 0 1 0 0) "/>
	<path d="M 57.9 50.801 c -2.835 0 -5.37 1.304 -7.04 3.343 l -13.935 -6.967 C 37.098 46.478 37.2 45.751 37.2 45 c 0 -0.751 -0.102 -1.478 -0.274 -2.176 l 13.934 -6.967 c 1.67 2.039 4.205 3.344 7.04 3.344 c 5.018 0 9.1 -4.083 9.1 -9.1 S 62.918 21 57.9 21 s -9.1 4.082 -9.1 9.1 c 0 0.751 0.102 1.478 0.274 2.176 L 35.14 39.244 C 33.47 37.205 30.935 35.9 28.1 35.9 c -5.018 0 -9.1 4.082 -9.1 9.1 s 4.082 9.1 9.1 9.1 c 2.835 0 5.37 -1.304 7.04 -3.343 l 13.935 6.967 c -0.173 0.699 -0.274 1.425 -0.274 2.177 c 0 5.018 4.082 9.1 9.1 9.1 s 9.1 -4.082 9.1 -9.1 S 62.918 50.801 57.9 50.801 z M 57.9 25 c 2.812 0 5.1 2.288 5.1 5.1 s -2.288 5.1 -5.1 5.1 s -5.1 -2.288 -5.1 -5.1 S 55.089 25 57.9 25 z M 28.1 50.1 c -2.812 0 -5.1 -2.288 -5.1 -5.1 c 0 -2.812 2.288 -5.1 5.1 -5.1 s 5.1 2.288 5.1 5.1 C 33.2 47.812 30.912 50.1 28.1 50.1 z M 57.9 65 c -2.812 0 -5.1 -2.288 -5.1 -5.1 s 2.288 -5.1 5.1 -5.1 s 5.1 2.288 5.1 5.1 S 60.712 65 57.9 65 z" style="stroke: none; stroke-width: 1; stroke-dasharray: none; stroke-linecap: butt; stroke-linejoin: miter; stroke-miterlimit: 10; fill: rgb(255,255,255); fill-rule: nonzero; opacity: 1;" transform=" matrix(1 0 0 1 0 0) " stroke-linecap="round"/>
</g>
</svg>