<svg width="94" height="94" viewBox="0 0 94 94" fill="none" xmlns="http://www.w3.org/2000/svg">
<path d="M47 94C72.9574 94 94 72.9574 94 47C94 21.0426 72.9574 0 47 0C21.0426 0 0 21.0426 0 47C0 72.9574 21.0426 94 47 94Z" fill="#D8D5DB"/>
<path d="M47 7.25977C68.9478 7.25977 86.7402 25.0522 86.7402 47C86.7402 68.9478 68.9478 86.7402 47 86.7402C25.0522 86.7402 7.25977 68.9478 7.25977 47C7.25977 25.0522 25.0522 7.25977 47 7.25977Z" fill="#4281A4" stroke="#4281A4" stroke-width="2.52"/>
<path d="M59.3962 25.6168C63.8858 25.6168 67.5388 29.2716 67.5388 33.7604C67.5386 38.2489 63.8857 41.902 59.3962 41.902C56.8604 41.9018 54.5923 40.7349 53.0974 38.9098L52.9714 38.7555L52.7927 38.8444L39.9421 45.2701L39.7634 45.359L39.8113 45.5533C39.9657 46.1801 40.0564 46.8308 40.0564 47.5006C40.0564 48.1703 39.9656 48.8204 39.8103 49.4479L39.7625 49.6422L39.9412 49.7311L52.7927 56.1569L52.9714 56.2457L53.0974 56.0914C54.5922 54.2663 56.8603 53.1003 59.3962 53.1002C63.8858 53.1002 67.5396 56.7524 67.5398 61.2418C67.5398 65.7315 63.8869 69.3844 59.3972 69.3844C54.9077 69.3842 51.2556 65.7313 51.2556 61.2418C51.2556 60.571 51.3455 59.9218 51.5007 59.2946L51.5486 59.1002L51.3699 59.0114L38.5183 52.5856L38.3396 52.4967L38.2136 52.651C36.7188 54.4761 34.4507 55.6421 31.9148 55.6422C27.4253 55.6422 23.7725 51.99 23.7722 47.5006C23.7722 43.011 27.4252 39.358 31.9148 39.358C34.4507 39.3581 36.7188 40.5251 38.2136 42.3502L38.3396 42.5045L38.5183 42.4156L51.3689 35.9899L51.5476 35.9L51.4998 35.7057C51.3454 35.0791 51.2547 34.429 51.2546 33.7594C51.2546 29.2699 54.9068 25.6171 59.3962 25.6168ZM59.3962 56.2877C56.6652 56.2879 54.4433 58.5098 54.4431 61.2408C54.4431 63.9721 56.6651 66.1947 59.3962 66.1949C62.1276 66.1949 64.3503 63.9722 64.3503 61.2408C64.3501 58.5097 62.1275 56.2877 59.3962 56.2877ZM31.9148 42.5465C29.1834 42.5465 26.9607 44.7693 26.9607 47.5006C26.9609 50.2318 29.1836 52.4537 31.9148 52.4537C34.6458 52.4535 36.8677 50.2316 36.8679 47.5006C36.8679 44.7694 34.646 42.5467 31.9148 42.5465ZM59.3962 28.8053C56.666 28.8055 54.4431 31.0281 54.4431 33.7594C54.4433 36.4905 56.6652 38.7123 59.3962 38.7125C62.1275 38.7125 64.3501 36.4906 64.3503 33.7594C64.3503 31.028 62.1276 28.8053 59.3962 28.8053Z" fill="white" stroke="#4281A4" stroke-width="0.5"/>
</svg>
