<svg width="178" height="178" viewBox="0 0 178 178" fill="none" xmlns="http://www.w3.org/2000/svg">
<path d="M88.9003 176.823C137.458 176.823 176.823 137.458 176.823 88.9003C176.823 40.3422 137.458 0.978027 88.9003 0.978027C40.3422 0.978027 0.978027 40.3422 0.978027 88.9003C0.978027 137.458 40.3422 176.823 88.9003 176.823Z" fill="#C1666B"/>
<path d="M129.134 58.7606H118.593H111.215V51.9593C111.215 44.8571 105.437 39.0777 98.3334 39.0777H79.4672C72.365 39.0777 66.5856 44.8571 66.5856 51.9593V58.7606H59.206H48.6671C46.51 58.7606 44.7594 60.5112 44.7594 62.6682C44.7594 64.8252 46.51 66.5759 48.6671 66.5759H55.2983V119.009C55.2983 129.878 64.1414 138.723 75.0125 138.723H102.786C113.655 138.723 122.5 129.88 122.5 119.009V66.5759H129.134C131.291 66.5759 133.041 64.8252 133.041 62.6682C133.041 60.5112 131.291 58.7606 129.134 58.7606ZM74.4009 51.9593C74.4009 49.1653 76.6732 46.893 79.4672 46.893H98.3334C101.127 46.893 103.4 49.1653 103.4 51.9593V58.7606H74.4009V51.9593ZM114.685 119.009C114.685 125.57 109.349 130.908 102.786 130.908H75.0125C68.4515 130.908 63.1137 125.572 63.1137 119.009V66.5759H70.4933H107.307H114.685V119.009Z" fill="white" stroke="#C1666B" stroke-width="5"/>
<path d="M79.7173 78.2832C77.5603 78.2832 75.8097 80.0338 75.8097 82.1909V111.916C75.8097 114.073 77.5603 115.824 79.7173 115.824C81.8744 115.824 83.625 114.073 83.625 111.916V82.1909C83.625 80.0338 81.8744 78.2832 79.7173 78.2832Z" fill="white" stroke="#C1666B" stroke-width="5"/>
<path d="M98.0833 78.2832C95.9263 78.2832 94.1757 80.0338 94.1757 82.1909V111.916C94.1757 114.073 95.9263 115.824 98.0833 115.824C100.24 115.824 101.991 114.073 101.991 111.916V82.1909C101.991 80.0338 100.242 78.2832 98.0833 78.2832Z" fill="white" stroke="#C1666B" stroke-width="5"/>
</svg>
